<?xml version="1.0" encoding="UTF-8" standalone="no"?>
<!-- Created with Inkscape (http://www.inkscape.org/) -->

<svg
   xmlns:dc="http://purl.org/dc/elements/1.1/"
   xmlns:cc="http://creativecommons.org/ns#"
   xmlns:rdf="http://www.w3.org/1999/02/22-rdf-syntax-ns#"
   xmlns:svg="http://www.w3.org/2000/svg"
   xmlns="http://www.w3.org/2000/svg"
   xmlns:sodipodi="http://sodipodi.sourceforge.net/DTD/sodipodi-0.dtd"
   xmlns:inkscape="http://www.inkscape.org/namespaces/inkscape"
   width="1052.3622"
   height="744.09448"
   id="svg2"
   version="1.1"
   inkscape:version="0.48.3.1 r9886"
   sodipodi:docname="New document 1">
  <defs
     id="defs4" />
  <sodipodi:namedview
     id="base"
     pagecolor="#ffffff"
     bordercolor="#666666"
     borderopacity="1.0"
     inkscape:pageopacity="0.0"
     inkscape:pageshadow="2"
     inkscape:zoom="1.0307831"
     inkscape:cx="526.18109"
     inkscape:cy="372.04724"
     inkscape:document-units="px"
     inkscape:current-layer="layer1"
     showgrid="false"
     inkscape:snap-smooth-nodes="true"
     inkscape:window-width="1280"
     inkscape:window-height="976"
     inkscape:window-x="0"
     inkscape:window-y="0"
     inkscape:window-maximized="1" />
  <metadata
     id="metadata7">
    <rdf:RDF>
      <cc:Work
         rdf:about="">
        <dc:format>image/svg+xml</dc:format>
        <dc:type
           rdf:resource="http://purl.org/dc/dcmitype/StillImage" />
        <dc:title></dc:title>
      </cc:Work>
    </rdf:RDF>
  </metadata>
  <g
     inkscape:label="Layer 1"
     inkscape:groupmode="layer"
     id="layer1"
     transform="translate(0,-308.2677)">
    <rect
       style="fill:#000080;stroke:#000000;stroke-width:1.15766250999999998px;stroke-linecap:butt;stroke-linejoin:miter;stroke-opacity:1;fill-opacity:1;opacity:0.29133858000000001"
       id="rect2985"
       width="212.02196"
       height="267.84225"
       x="492.33524"
       y="892.68256"
       transform="matrix(0.78919248,-0.61414594,0.01861514,0.99982672,0,0)"
       inkscape:transform-center-x="79.452009"
       inkscape:transform-center-y="65.129947" />
    <path
       sodipodi:type="arc"
       style="fill:none"
       id="path3757"
       sodipodi:cx="201.69131"
       sodipodi:cy="185.67023"
       sodipodi:rx="26.068945"
       sodipodi:ry="58.998142"
       d="m 227.76026,185.67023 a 26.068945,58.998142 0 0 1 -10.6135,47.51118 l -15.45545,-47.51118 z"
       transform="translate(142.69318,243.78136)"
       sodipodi:start="0"
       sodipodi:end="0.93618067" />
    <path
       style="fill:#ffffff;stroke:#000000;stroke-width:1px;stroke-linecap:butt;stroke-linejoin:miter;stroke-opacity:1;opacity:1;fill-opacity:1"
       d="m 489.82177,583.12115 c -3.45286,0.42899 -16.05395,2.27741 -20.58074,1.37205 -2.41508,-0.48301 -4.49211,-2.06748 -6.86025,-2.74409 -0.87951,-0.25129 -1.8294,0 -2.7441,0 -0.9147,0 -1.8294,0 -2.7441,0 -0.9147,0 -2.09731,-0.64679 -2.7441,0 -0.95988,0.95987 0.63396,4.22027 0,5.48819 -0.28926,0.57851 -1.16752,0.75845 -1.37205,1.37205 -0.24527,0.7358 0,9.93612 0,10.9764 0,3.20145 0,6.4029 0,9.60435 0,0.9147 -0.17939,1.84716 0,2.7441 0.28363,1.41818 1.02128,2.71306 1.37205,4.11615 0.11092,0.44369 -0.14463,0.93817 0,1.37205 0.64679,1.94037 2.09731,3.54783 2.7441,5.4882 0.14462,0.43388 0,0.9147 0,1.37205 0,0.9147 -0.28926,1.87634 0,2.7441 0.20453,0.6136 1.37205,0.72526 1.37205,1.37205 0,0.64679 -1.37205,0.72526 -1.37205,1.37205 0,0.64679 1.08279,0.79354 1.37205,1.37205 0.21862,0.43723 0,5.63402 0,6.86025 0,1.00719 0.23916,7.75396 0,8.23229 -0.57851,1.15702 -2.1656,1.58709 -2.7441,2.7441 -0.64679,1.29359 -0.72526,2.82257 -1.37205,4.11615 -0.57851,1.15702 -2.02655,1.66778 -2.7441,2.7441 -0.007,0.01 -1.69547,4.11615 -2.7441,4.11615 -0.45735,0 0,-0.9147 0,-1.37205 -1.37205,0.9147 -2.95013,1.57808 -4.11615,2.7441 -0.3234,0.3234 0.45735,1.37205 0,1.37205 -1.02267,0 -1.72143,-1.37205 -2.7441,-1.37205 -1.02267,0 -1.72143,1.37205 -2.7441,1.37205 -0.45735,0 0.45735,-1.37205 0,-1.37205 -0.26722,0 -4.57158,4.87712 -5.4882,5.4882 -0.38054,0.25369 -1.04865,-0.32339 -1.37205,0 -0.0342,0.0342 0,6.3448 0,6.86025 0,3.69605 -0.36529,7.50173 1.37205,10.9764 0.20453,0.40906 1.04866,-0.3234 1.37205,0 0.94557,0.94557 3.11008,6.7232 4.11615,8.2323 0.35877,0.53816 0.98398,0.85461 1.37205,1.37205 0.9894,1.3192 1.7547,2.79695 2.7441,4.11615 2.42965,3.23953 1.08939,-1.13063 2.7441,5.4882 0.11092,0.44369 0,0.9147 0,1.37205 0,2.5785 -0.14463,1.6965 1.37205,5.48819 0.37981,0.94953 1.37205,1.72144 1.37205,2.7441 0,0.64679 -1.37205,0.72526 -1.37205,1.37205 0,6.93133 1.05445,2.10891 2.7441,5.4882 0.40906,0.81814 -0.50739,1.98303 0,2.7441 0.71755,1.07633 2.02655,1.66778 2.7441,2.7441 0.25369,0.38054 -0.3234,1.04866 0,1.37205 0.32339,0.3234 0.93817,-0.14462 1.37205,0 1.94037,0.64679 3.50393,2.24804 5.4882,2.7441 0.88739,0.22185 1.84184,-0.15037 2.7441,0 1.86004,0.31001 3.62145,1.10537 5.4882,1.37205 1.35826,0.19404 2.76276,-0.22556 4.11614,0 1.42659,0.23777 2.69797,1.08841 4.11615,1.37205 0.89694,0.17939 1.84185,-0.15037 2.7441,0 1.86005,0.31001 3.62145,1.10537 5.4882,1.37205 1.35826,0.19404 2.7441,0 4.11615,0 1.8294,0 3.6588,0 5.4882,0 1.8294,0 3.6588,0 5.4882,0 0.9147,0 1.84716,0.17939 2.7441,0 1.41818,-0.28364 2.71306,-1.02128 4.11615,-1.37205 2.28675,-0.45735 4.5735,-0.9147 6.86025,-1.37205 0.45735,-0.45735 0.79354,-1.0828 1.37205,-1.37205 1.46352,-0.73176 1.83399,1.35826 2.7441,-1.37205 0.28925,-0.86776 -0.40907,-1.92597 0,-2.7441 0.5785,-1.15701 2.43036,-1.48914 2.7441,-2.7441 0.24803,-0.99213 -1.12402,-1.75197 -1.37205,-2.7441 -0.22185,-0.88739 0,-1.8294 0,-2.7441 0,-1.8294 -0.30075,-3.68369 0,-5.4882 0.23776,-1.42659 1.08841,-2.69796 1.37205,-4.11615 0.35877,-1.79387 0,-3.65879 0,-5.48819 0,-3.6588 0,-7.3176 0,-10.9764 0,-2.28675 0,-4.5735 0,-6.86025 0,-0.9147 -0.28926,-1.87634 0,-2.7441 0.20453,-0.6136 1.37205,-0.72526 1.37205,-1.37205 0,-1.8857 -1.00224,-3.63912 -1.37205,-5.4882 -0.0897,-0.44847 0.20453,-0.96298 0,-1.37205 -0.28926,-0.57851 -1.16752,-0.75845 -1.37205,-1.37205 -0.68603,-2.05807 0.68602,-4.80217 0,-6.86025 -0.20454,-0.6136 -1.37205,-0.72526 -1.37205,-1.37205 0,-1.44627 1.02128,-2.71306 1.37205,-4.11615 0.11092,-0.44369 0,-0.9147 0,-1.37205 0,-5.29489 0.50738,-0.35728 -2.7441,-6.86025 -0.20454,-0.40906 0,-0.9147 0,-1.37205 0,-0.9147 0,-1.8294 0,-2.7441 0,-0.7666 -0.2699,-6.05056 0,-6.86024 0.32339,-0.97019 1.37205,-1.72144 1.37205,-2.7441 0,-1.29358 -2.7441,-1.45052 -2.7441,-2.7441 0,-1.44627 1.02128,-2.71307 1.37205,-4.11615 0.34301,-1.37205 -0.68603,-2.7441 0,-4.11615 0.20453,-0.40907 1.04865,0.32339 1.37205,0 0.32339,-0.3234 -0.14463,-0.93817 0,-1.37205 0.32339,-0.97019 1.04865,-1.77392 1.37205,-2.7441 0.14462,-0.43388 -0.3234,-1.04866 0,-1.37205 0.32339,-0.3234 1.04865,0.32339 1.37205,0 0.30595,-0.30596 -0.27199,-6.04428 0,-6.86025 0.20453,-0.6136 1.16751,-0.75845 1.37205,-1.37205 0.18214,-0.54644 0.18214,-7.68586 0,-8.2323 -0.20454,-0.6136 -1.16752,-0.75845 -1.37205,-1.37205 -0.25293,-0.75877 0,-6.85057 0,-8.2323 0,-0.45735 0.20453,-0.96298 0,-1.37205 -1.36657,-2.73312 -4.11615,-0.10112 -4.11615,-2.7441 0,-0.45735 1.04865,0.3234 1.37205,0 0.32339,-0.32339 0.32339,-1.04865 0,-1.37205 -0.3234,-0.32339 -1.04866,0.3234 -1.37205,0 -0.3234,-0.32339 0.20453,-0.96298 0,-1.37205 -0.28926,-0.5785 -1.0828,-0.79354 -1.37205,-1.37205 -0.40907,-0.81813 0.64679,-2.0973 0,-2.7441 -0.3234,-0.32339 -1.04866,0.3234 -1.37205,0 -0.3234,-0.32339 0.45735,-1.37205 0,-1.37205 -0.64679,0 -0.79354,1.0828 -1.37205,1.37205 -0.0718,0.0359 -4.04437,0.0359 -4.11615,0 -0.57851,-0.28925 -1.37205,-0.72525 -1.37205,-1.37205 0,-0.45735 1.37205,-0.45735 1.37205,0 0,0.45735 -0.96298,0.20454 -1.37205,0 -0.57851,-0.28925 -0.72526,-1.37204 -1.37205,-1.37204 -0.45735,0 0.32339,1.04865 0,1.37204 -0.13721,0.13721 -3.97894,0.13721 -4.11615,0 -0.32339,-0.32339 0.40907,-1.16751 0,-1.37204 -0.81813,-0.40907 -1.8294,0 -2.7441,0 -3.70409,0 -0.92358,-0.0897 -8.2323,1.37204 z"
       id="path3767"
       inkscape:connector-curvature="0" />
    <path
       style="fill:none;stroke:#000000;stroke-width:1.00535297px;stroke-linecap:butt;stroke-linejoin:miter;stroke-opacity:1"
       d="M 100.16231,757.3688 488.44705,625.65738"
       id="path3769"
       inkscape:connector-curvature="0" />
    <rect
       style="fill:none;stroke:#000000;stroke-width:5.7310071;stroke-opacity:1"
       id="rect3771"
       width="0.0029330284"
       height="0.091812968"
       x="491.03012"
       y="623.78003" />
    <path
       style="fill:none;stroke:#000000;stroke-width:1px;stroke-linecap:butt;stroke-linejoin:miter;stroke-opacity:1"
       d="M 487.00838,317.23454 977.89731,252.23542"
       id="path3773"
       inkscape:connector-curvature="0"
       transform="translate(0,308.2677)" />
    <text
       xml:space="preserve"
       style="font-size:40px;font-style:normal;font-weight:normal;line-height:125%;letter-spacing:0px;word-spacing:0px;fill:#000000;fill-opacity:1;stroke:none;font-family:Sans"
       x="78.581032"
       y="415.21829"
       id="text3775"
       sodipodi:linespacing="125%"
       transform="translate(0,308.2677)"><tspan
         sodipodi:role="line"
         id="tspan3777"
         x="78.581032"
         y="415.21829">P<tspan
   style="-inkscape-font-specification:Sans;font-family:Sans;font-weight:normal;font-style:normal;font-stretch:normal;font-variant:normal;font-size:22px;text-anchor:start;text-align:start;writing-mode:lr;line-height:125%"
   id="tspan3779">0</tspan></tspan></text>
    <text
       xml:space="preserve"
       style="font-size:40px;font-style:normal;font-weight:normal;line-height:125%;letter-spacing:0px;word-spacing:0px;fill:#000000;fill-opacity:1;stroke:none;font-family:Sans"
       x="967.22583"
       y="225.07159"
       id="text3781"
       sodipodi:linespacing="125%"
       transform="translate(0,308.2677)"><tspan
         sodipodi:role="line"
         id="tspan3783"
         x="967.22583"
         y="225.07159">P</tspan></text>
    <text
       xml:space="preserve"
       style="font-size:40px;font-style:normal;font-weight:normal;line-height:125%;letter-spacing:0px;word-spacing:0px;fill:#000000;fill-opacity:1;stroke:none;font-family:Sans"
       x="261.93677"
       y="358.95041"
       id="text3785"
       sodipodi:linespacing="125%"
       transform="translate(0,308.2677)"><tspan
         sodipodi:role="line"
         id="tspan3787"
         x="261.93677"
         y="358.95041">r</tspan></text>
    <text
       xml:space="preserve"
       style="font-size:40px;font-style:normal;font-weight:normal;line-height:125%;letter-spacing:0px;word-spacing:0px;fill:#000000;fill-opacity:1;stroke:none;font-family:Sans"
       x="769.31799"
       y="245.44446"
       id="text3789"
       sodipodi:linespacing="125%"
       transform="translate(0,308.2677)"><tspan
         sodipodi:role="line"
         id="tspan3791"
         x="769.31799"
         y="245.44446">s</tspan></text>
    <text
       xml:space="preserve"
       style="font-size:40px;font-style:normal;font-variant:normal;font-weight:normal;font-stretch:normal;text-align:start;line-height:125%;letter-spacing:0px;word-spacing:0px;writing-mode:lr-tb;text-anchor:start;fill:#000000;fill-opacity:1;stroke:none;font-family:Symbol;-inkscape-font-specification:Symbol"
       x="480.21744"
       y="260.96664"
       id="text3825"
       sodipodi:linespacing="125%"
       transform="translate(0,308.2677)"><tspan
         sodipodi:role="line"
         id="tspan3827"
         x="480.21744"
         y="260.96664">Σ</tspan></text>
    <path
       sodipodi:type="arc"
       style="fill:#000000;stroke:#000000;stroke-opacity:1"
       id="path3829"
       sodipodi:cx="69.364738"
       sodipodi:cy="504.47083"
       sodipodi:rx="15.037111"
       sodipodi:ry="14.552043"
       d="m 84.40185,504.47083 a 15.037111,14.552043 0 1 1 -0.103497,-1.70441 l -14.933615,1.70441 z"
       transform="matrix(0.28233418,0,0,0.25841198,81.310129,627.56453)"
       sodipodi:start="0"
       sodipodi:end="6.1657913" />
    <path
       sodipodi:type="arc"
       style="fill:#000000;stroke:#000000;stroke-opacity:1"
       id="path3829-1"
       sodipodi:cx="69.364738"
       sodipodi:cy="504.47083"
       sodipodi:rx="15.037111"
       sodipodi:ry="14.552043"
       d="m 84.40185,504.47083 a 15.037111,14.552043 0 1 1 -0.103497,-1.70441 l -14.933615,1.70441 z"
       transform="matrix(0.28233418,0,0,0.25841198,954.43274,430.14182)"
       sodipodi:start="0"
       sodipodi:end="6.1657913" />
    <path
       sodipodi:type="arc"
       style="opacity:0.29133857;fill:none;stroke:#000000;stroke-opacity:1"
       id="path3849"
       sodipodi:cx="150.85619"
       sodipodi:cy="508.35138"
       sodipodi:rx="52.872425"
       sodipodi:ry="60.148445"
       d="m 202.13604,493.69999 a 52.872425,60.148445 0 0 1 -95.59277,47.46242"
       transform="matrix(0.1224109,-1.1396337,0.99247951,0.14056067,-436.55301,860.8346)"
       sodipodi:start="6.0371226"
       sodipodi:end="8.8477913"
       sodipodi:open="true" />
    <path
       sodipodi:type="arc"
       style="opacity:0.29133857;fill:none;stroke:#000000;stroke-opacity:1"
       id="path3849-9"
       sodipodi:cx="150.85619"
       sodipodi:cy="508.35138"
       sodipodi:rx="52.872425"
       sodipodi:ry="60.148445"
       d="m 202.13604,493.69999 a 52.872425,60.148445 0 0 1 -95.59277,47.46242"
       transform="matrix(0.21860539,-1.8459832,1.7724024,0.22768073,-803.65552,915.42388)"
       sodipodi:start="6.0371226"
       sodipodi:end="8.8477913"
       sodipodi:open="true" />
    <path
       sodipodi:type="arc"
       style="opacity:0.29133857;fill:none;stroke:#000000;stroke-opacity:1"
       id="path3849-9-3"
       sodipodi:cx="150.85619"
       sodipodi:cy="508.35138"
       sodipodi:rx="52.872425"
       sodipodi:ry="60.148445"
       d="m 202.13604,493.69999 a 52.872425,60.148445 0 0 1 -95.59277,47.46242"
       transform="matrix(-0.1755255,-2.4454524,2.0898336,0.21412576,-822.29207,985.14924)"
       sodipodi:start="6.0371226"
       sodipodi:end="8.8477913"
       sodipodi:open="true" />
  </g>
</svg>
